{
  "accessors": [
    {
      "bufferView": 2,
      "componentType": 5126,
      "count": 1946,
      "max": [
        0.061986565589904785,
        0.19783839583396912,
        0.043361011892557144
      ],
      "min": [
        -0.06191045045852661,
        0.0003204636450391263,
        -0.043437737971544266
      ],
      "type": "VEC3"
    },
    {
      "bufferView": 2,
      "byteOffset": 23352,
      "componentType": 5126,
      "count": 1946,
      "max": [
        0.9982900619506836,
        0.9992480278015137,
        0.999479353427887
      ],
      "min": [
        -0.9991503953933716,
        -0.9958164095878601,
        -0.9999654293060303
      ],
      "type": "VEC3"
    },
    {
      "bufferView": 3,
      "componentType": 5126,
      "count": 1946,
      "max": [
        0.9847619533538818,
        0.9991251230239868,
        0.9993429183959961,
        1.0
      ],
      "min": [
        -0.9972195029258728,
        -0.9999352693557739,
        -0.9999748468399048,
        -1.0
      ],
      "type": "VEC4"
    },
    {
      "bufferView": 1,
      "componentType": 5126,
      "count": 1946,
      "max": [
        0.9978707432746887,
        0.9920747876167297
      ],
      "min": [
        0.000974658876657486,
        0.000974658876657486
      ],
      "type": "VEC2"
    },
    {
      "bufferView": 1,
      "byteOffset": 15568,
      "componentType": 5126,
      "count": 1946,
      "max": [
        0.9978707432746887,
        0.9920747876167297
      ],
      "min": [
        0.000974658876657486,
        0.000974658876657486
      ],
      "type": "VEC2"
    },
    {
      "bufferView": 0,
      "componentType": 5125,
      "count": 9036,
      "type": "SCALAR"
    }
  ],
  "asset": {
    "extras": {
      "author": "David Wigforss (https://sketchfab.com/dwigfor)",
      "license": "CC-BY-NC-4.0 (http://creativecommons.org/licenses/by-nc/4.0/)",
      "source": "https://sketchfab.com/3d-models/phantom-of-the-opera-mask-f4a1eb6777ca49a99051c48ed9fda118",
      "title": "Phantom Of The Opera Mask"
    },
    "generator": "Sketchfab-12.66.0",
    "version": "2.0"
  },
  "bufferViews": [
    {
      "buffer": 0,
      "byteLength": 36144,
      "name": "floatBufferViews",
      "target": 34963
    },
    {
      "buffer": 0,
      "byteLength": 31136,
      "byteOffset": 36144,
      "byteStride": 8,
      "name": "floatBufferViews",
      "target": 34962
    },
    {
      "buffer": 0,
      "byteLength": 46704,
      "byteOffset": 67280,
      "byteStride": 12,
      "name": "floatBufferViews",
      "target": 34962
    },
    {
      "buffer": 0,
      "byteLength": 31136,
      "byteOffset": 113984,
      "byteStride": 16,
      "name": "floatBufferViews",
      "target": 34962
    }
  ],
  "buffers": [
    {
      "byteLength": 145120,
      "uri": "scene.bin"
    }
  ],
  "images": [
    {
      "uri": "textures/MAT_Mask_PhantomOfTheOpera_baseColor.jpeg"
    },
    {
      "uri": "textures/MAT_Mask_PhantomOfTheOpera_normal.png"
    }
  ],
  "materials": [
    {
      "doubleSided": true,
      "name": "MAT_Mask_PhantomOfTheOpera",
      "normalTexture": {
        "index": 1
      },
      "pbrMetallicRoughness": {
        "baseColorTexture": {
          "index": 0
        },
        "metallicFactor": 0.0,
        "roughnessFactor": 0.9577051494623774
      }
    }
  ],
  "meshes": [
    {
      "name": "geo1_MAT_Mask_PhantomOfTheOpera_0",
      "primitives": [
        {
          "attributes": {
            "NORMAL": 1,
            "POSITION": 0,
            "TANGENT": 2,
            "TEXCOORD_0": 3,
            "TEXCOORD_1": 4
          },
          "indices": 5,
          "material": 0,
          "mode": 4
        }
      ]
    }
  ],
  "nodes": [
    {
      "children": [
        1
      ],
      "matrix": [
        1.0,
        0.0,
        0.0,
        0.0,
        0.0,
        2.220446049250313e-16,
        -1.0,
        0.0,
        0.0,
        1.0,
        2.220446049250313e-16,
        0.0,
        0.0,
        0.0,
        0.0,
        1.0
      ],
      "name": "Sketchfab_model"
    },
    {
      "children": [
        2
      ],
      "matrix": [
        1.0,
        0.0,
        0.0,
        0.0,
        0.0,
        0.0,
        1.0,
        0.0,
        0.0,
        -1.0,
        0.0,
        0.0,
        0.0,
        0.0,
        0.0,
        1.0
      ],
      "name": "mesh.fbx"
    },
    {
      "children": [
        3
      ],
      "name": "RootNode"
    },
    {
      "children": [
        4
      ],
      "name": "geo1"
    },
    {
      "mesh": 0,
      "name": "geo1_MAT_Mask_PhantomOfTheOpera_0"
    }
  ],
  "samplers": [
    {
      "magFilter": 9729,
      "minFilter": 9987,
      "wrapS": 10497,
      "wrapT": 10497
    }
  ],
  "scene": 0,
  "scenes": [
    {
      "name": "Sketchfab_Scene",
      "nodes": [
        0
      ]
    }
  ],
  "textures": [
    {
      "sampler": 0,
      "source": 0
    },
    {
      "sampler": 0,
      "source": 1
    }
  ]
}
