{
  "accessors": [
    {
      "bufferView": 1,
      "componentType": 5126,
      "count": 59474,
      "max": [
        38.05250549316406,
        29.99483299255371,
        33.523555755615234
      ],
      "min": [
        -38.210357666015625,
        -38.07059860229492,
        -36.936031341552734
      ],
      "type": "VEC3"
    },
    {
      "bufferView": 1,
      "byteOffset": 713688,
      "componentType": 5126,
      "count": 59474,
      "max": [
        0.9999771118164063,
        0.9999659061431885,
        0.999957263469696
      ],
      "min": [
        -0.9998854994773865,
        -0.9999448657035828,
        -0.9999963641166687
      ],
      "type": "VEC3"
    },
    {
      "bufferView": 2,
      "componentType": 5126,
      "count": 59474,
      "max": [
        1.0,
        1.0,
        1.0,
        1.0
      ],
      "min": [
        0.0,
        0.0,
        0.0,
        1.0
      ],
      "type": "VEC4"
    },
    {
      "bufferView": 0,
      "componentType": 5125,
      "count": 356820,
      "type": "SCALAR"
    }
  ],
  "asset": {
    "extras": {
      "author": "smeerws (https://sketchfab.com/smeerws)",
      "license": "CC-BY-4.0 (http://creativecommons.org/licenses/by/4.0/)",
      "source": "https://sketchfab.com/3d-models/medium-cow-balloon-d3ad59278e6545e5a896f28f9a2f7cf9",
      "title": "Medium | Cow-Balloon"
    },
    "generator": "Sketchfab-12.68.0",
    "version": "2.0"
  },
  "bufferViews": [
    {
      "buffer": 0,
      "byteLength": 1427280,
      "name": "floatBufferViews",
      "target": 34963
    },
    {
      "buffer": 0,
      "byteLength": 1427376,
      "byteOffset": 1427280,
      "byteStride": 12,
      "name": "floatBufferViews",
      "target": 34962
    },
    {
      "buffer": 0,
      "byteLength": 951584,
      "byteOffset": 2854656,
      "byteStride": 16,
      "name": "floatBufferViews",
      "target": 34962
    }
  ],
  "buffers": [
    {
      "byteLength": 3806240,
      "uri": "scene.bin"
    }
  ],
  "materials": [
    {
      "doubleSided": true,
      "name": "material_0",
      "pbrMetallicRoughness": {
        "roughnessFactor": 0.5018125057
      }
    }
  ],
  "meshes": [
    {
      "name": "Object_0",
      "primitives": [
        {
          "attributes": {
            "COLOR_0": 2,
            "NORMAL": 1,
            "POSITION": 0
          },
          "indices": 3,
          "material": 0,
          "mode": 4
        }
      ]
    }
  ],
  "nodes": [
    {
      "children": [
        1
      ],
      "matrix": [
        0.00913612823933363,
        0.0,
        0.0,
        0.0,
        0.0,
        3.497829436238795e-18,
        -0.00913612823933363,
        0.0,
        0.0,
        0.00913612823933363,
        3.497829436238795e-18,
        0.0,
        0.0,
        6.661338147750939e-16,
        1.4791141972893971e-31,
        1.0
      ],
      "name": "Sketchfab_model"
    },
    {
      "children": [
        2
      ],
      "name": "smeerws_2018-02-26_09-53-10cow.obj.cleaner.materialmerger.gles"
    },
    {
      "mesh": 0,
      "name": "Object_2"
    }
  ],
  "scene": 0,
  "scenes": [
    {
      "name": "Sketchfab_Scene",
      "nodes": [
        0
      ]
    }
  ]
}
