{
  "accessors": [
    {
      "bufferView": 2,
      "componentType": 5126,
      "count": 708,
      "max": [
        1.6261177062988281,
        1.0682857036590576,
        1.2107207775115967
      ],
      "min": [
        -5.303117275238037,
        -2.404614210128784,
        -3.2496724128723145
      ],
      "type": "VEC3"
    },
    {
      "bufferView": 2,
      "byteOffset": 8496,
      "componentType": 5126,
      "count": 708,
      "max": [
        0.9908337593078613,
        0.9989117383956909,
        0.9993284940719604
      ],
      "min": [
        -0.9952051639556885,
        -0.9994564652442932,
        -0.9756779670715332
      ],
      "type": "VEC3"
    },
    {
      "bufferView": 1,
      "componentType": 5126,
      "count": 708,
      "max": [
        0.9772727489471436,
        0.47238200902938843
      ],
      "min": [
        0.0,
        0.0
      ],
      "type": "VEC2"
    },
    {
      "bufferView": 0,
      "componentType": 5125,
      "count": 3456,
      "type": "SCALAR"
    },
    {
      "bufferView": 2,
      "byteOffset": 16992,
      "componentType": 5126,
      "count": 17122,
      "max": [
        12.465269088745117,
        1.8429497480392456,
        6.587522506713867
      ],
      "min": [
        -14.083066940307617,
        -36.840248107910156,
        -28.979509353637695
      ],
      "type": "VEC3"
    },
    {
      "bufferView": 2,
      "byteOffset": 222456,
      "componentType": 5126,
      "count": 17122,
      "max": [
        0.9999289512634277,
        0.9999943375587463,
        0.9999327063560486
      ],
      "min": [
        -0.9999374747276306,
        -0.9990671277046204,
        -0.9999010562896729
      ],
      "type": "VEC3"
    },
    {
      "bufferView": 1,
      "byteOffset": 5664,
      "componentType": 5126,
      "count": 17122,
      "max": [
        0.0,
        0.0
      ],
      "min": [
        0.0,
        0.0
      ],
      "type": "VEC2"
    },
    {
      "bufferView": 0,
      "byteOffset": 13824,
      "componentType": 5125,
      "count": 102720,
      "type": "SCALAR"
    },
    {
      "bufferView": 3,
      "componentType": 5126,
      "count": 480,
      "max": [
        10.0
      ],
      "min": [
        0.0
      ],
      "type": "SCALAR"
    },
    {
      "bufferView": 4,
      "componentType": 5126,
      "count": 480,
      "max": [
        578.191650390625,
        -137.3185577392578,
        823.9031982421875
      ],
      "min": [
        -414.4375305175781,
        -451.5429992675781,
        237.50352478027344
      ],
      "type": "VEC3"
    },
    {
      "bufferView": 3,
      "byteOffset": 1920,
      "componentType": 5126,
      "count": 4,
      "max": [
        10.0
      ],
      "min": [
        0.0
      ],
      "type": "SCALAR"
    },
    {
      "bufferView": 4,
      "byteOffset": 5760,
      "componentType": 5126,
      "count": 4,
      "max": [
        14.439071655273438,
        6.442444324493408,
        11.996613502502441
      ],
      "min": [
        14.439070701599121,
        6.442444324493408,
        11.996612548828125
      ],
      "type": "VEC3"
    },
    {
      "bufferView": 3,
      "byteOffset": 1936,
      "componentType": 5126,
      "count": 480,
      "max": [
        10.0
      ],
      "min": [
        0.0
      ],
      "type": "SCALAR"
    },
    {
      "bufferView": 5,
      "componentType": 5126,
      "count": 480,
      "max": [
        0.21748672425746918,
        0.32231971621513367,
        0.05386712774634361,
        0.9972836375236511
      ],
      "min": [
        0.0680604800581932,
        -0.23821797966957092,
        -0.05587881803512573,
        0.9360626935958862
      ],
      "type": "VEC4"
    },
    {
      "bufferView": 3,
      "byteOffset": 3856,
      "componentType": 5126,
      "count": 1,
      "max": [
        0.0
      ],
      "min": [
        0.0
      ],
      "type": "SCALAR"
    },
    {
      "bufferView": 4,
      "byteOffset": 5808,
      "componentType": 5126,
      "count": 1,
      "max": [
        23.99933433532715,
        88.62677001953125,
        82.21406555175781
      ],
      "min": [
        23.99933433532715,
        88.62677001953125,
        82.21406555175781
      ],
      "type": "VEC3"
    },
    {
      "bufferView": 3,
      "byteOffset": 3860,
      "componentType": 5126,
      "count": 33,
      "max": [
        0.6666666865348816
      ],
      "min": [
        0.0
      ],
      "type": "SCALAR"
    },
    {
      "bufferView": 4,
      "byteOffset": 5820,
      "componentType": 5126,
      "count": 33,
      "max": [
        87.35753631591797,
        87.3575439453125,
        87.35753631591797
      ],
      "min": [
        87.16810607910156,
        87.14169311523438,
        2.4339332580566406
      ],
      "type": "VEC3"
    },
    {
      "bufferView": 3,
      "byteOffset": 3992,
      "componentType": 5126,
      "count": 29,
      "max": [
        0.6666666865348816
      ],
      "min": [
        0.0
      ],
      "type": "SCALAR"
    },
    {
      "bufferView": 5,
      "byteOffset": 7680,
      "componentType": 5126,
      "count": 29,
      "max": [
        -0.6875311136245728,
        -0.004373891744762659,
        -0.037590913474559784,
        0.7251681089401245
      ],
      "min": [
        -0.6875311136245728,
        -0.004373891744762659,
        -0.037590913474559784,
        0.7251681089401245
      ],
      "type": "VEC4"
    }
  ],
  "animations": [
    {
      "channels": [
        {
          "sampler": 0,
          "target": {
            "node": 4,
            "path": "translation"
          }
        },
        {
          "sampler": 1,
          "target": {
            "node": 4,
            "path": "scale"
          }
        },
        {
          "sampler": 2,
          "target": {
            "node": 4,
            "path": "rotation"
          }
        }
      ],
      "name": "duch|CameraAction",
      "samplers": [
        {
          "input": 8,
          "interpolation": "LINEAR",
          "output": 9
        },
        {
          "input": 10,
          "interpolation": "LINEAR",
          "output": 11
        },
        {
          "input": 12,
          "interpolation": "LINEAR",
          "output": 13
        }
      ]
    },
    {
      "channels": [
        {
          "sampler": 0,
          "target": {
            "node": 4,
            "path": "translation"
          }
        },
        {
          "sampler": 1,
          "target": {
            "node": 4,
            "path": "scale"
          }
        },
        {
          "sampler": 2,
          "target": {
            "node": 4,
            "path": "rotation"
          }
        }
      ],
      "name": "duch|EvilEyes|EvilEyes|EvilEyes.002Action.001|EvilEyes|EvilEyes.002A",
      "samplers": [
        {
          "input": 14,
          "interpolation": "LINEAR",
          "output": 15
        },
        {
          "input": 16,
          "interpolation": "LINEAR",
          "output": 17
        },
        {
          "input": 18,
          "interpolation": "LINEAR",
          "output": 19
        }
      ]
    }
  ],
  "asset": {
    "extras": {
      "author": "skalson (https://sketchfab.com/skalson)",
      "license": "CC-BY-4.0 (http://creativecommons.org/licenses/by/4.0/)",
      "source": "https://sketchfab.com/3d-models/ghost-classic-f02308be0bd74ee99aeffef7eb41e170",
      "title": "Ghost classic"
    },
    "generator": "Sketchfab-15.19.0",
    "version": "2.0"
  },
  "bufferViews": [
    {
      "buffer": 0,
      "byteLength": 424704,
      "name": "floatBufferViews",
      "target": 34963
    },
    {
      "buffer": 0,
      "byteLength": 142640,
      "byteOffset": 424704,
      "byteStride": 8,
      "name": "floatBufferViews",
      "target": 34962
    },
    {
      "buffer": 0,
      "byteLength": 427920,
      "byteOffset": 567344,
      "byteStride": 12,
      "name": "floatBufferViews",
      "target": 34962
    },
    {
      "buffer": 0,
      "byteLength": 4108,
      "byteOffset": 995264,
      "name": "floatBufferViews"
    },
    {
      "buffer": 0,
      "byteLength": 6216,
      "byteOffset": 999372,
      "byteStride": 12,
      "name": "floatBufferViews"
    },
    {
      "buffer": 0,
      "byteLength": 8144,
      "byteOffset": 1005588,
      "byteStride": 16,
      "name": "floatBufferViews"
    }
  ],
  "buffers": [
    {
      "byteLength": 1013732,
      "uri": "scene.bin"
    }
  ],
  "extensionsUsed": [
    "KHR_materials_emissive_strength"
  ],
  "materials": [
    {
      "doubleSided": true,
      "emissiveFactor": [
        0.010845057629415447,
        0.25441388991911895,
        0.44672920812723993
      ],
      "extensions": {
        "KHR_materials_emissive_strength": {
          "emissiveStrength": 4.617156928478257
        }
      },
      "name": "Material.002",
      "pbrMetallicRoughness": {
        "baseColorFactor": [
          0.8,
          0.8,
          0.8,
          1.0
        ],
        "metallicFactor": 0.0,
        "roughnessFactor": 0.8040408205773457
      }
    },
    {
      "doubleSided": true,
      "emissiveFactor": [
        0.0008362199771710451,
        0.026288282167662564,
        0.03425996920827989
      ],
      "name": "Material.001",
      "pbrMetallicRoughness": {
        "baseColorFactor": [
          0.8,
          0.8,
          0.8,
          1.0
        ],
        "metallicFactor": 0.0,
        "roughnessFactor": 0.8040408205773457
      }
    }
  ],
  "meshes": [
    {
      "name": "duch_Material.002_0",
      "primitives": [
        {
          "attributes": {
            "NORMAL": 1,
            "POSITION": 0,
            "TEXCOORD_0": 2
          },
          "indices": 3,
          "material": 0,
          "mode": 4
        }
      ]
    },
    {
      "name": "duch_Material.001_0",
      "primitives": [
        {
          "attributes": {
            "NORMAL": 5,
            "POSITION": 4,
            "TEXCOORD_0": 6
          },
          "indices": 7,
          "material": 1,
          "mode": 4
        }
      ]
    }
  ],
  "nodes": [
    {
      "children": [
        1
      ],
      "matrix": [
        1.0,
        0.0,
        0.0,
        0.0,
        0.0,
        2.220446049250313e-16,
        -1.0,
        0.0,
        0.0,
        1.0,
        2.220446049250313e-16,
        0.0,
        0.0,
        0.0,
        0.0,
        1.0
      ],
      "name": "Sketchfab_model"
    },
    {
      "children": [
        2
      ],
      "matrix": [
        0.009999999776482582,
        0.0,
        0.0,
        0.0,
        0.0,
        0.0,
        0.009999999776482582,
        0.0,
        0.0,
        -0.009999999776482582,
        0.0,
        0.0,
        0.0,
        0.0,
        0.0,
        1.0
      ],
      "name": "03b1e88e0c954efcbe24a9c77b133648.fbx"
    },
    {
      "children": [
        3
      ],
      "name": "Object_2"
    },
    {
      "children": [
        4
      ],
      "name": "RootNode"
    },
    {
      "children": [
        5,
        6
      ],
      "name": "duch",
      "rotation": [
        -0.02338627725839615,
        0.8169278502464294,
        0.5739595293998718,
        -0.0515015535056591
      ],
      "scale": [
        14.439070701599121,
        6.442444324493408,
        11.996611595153809
      ],
      "translation": [
        -20.371795654296875,
        162.46267700195313,
        -405.938232421875
      ]
    },
    {
      "mesh": 0,
      "name": "duch_Material.002_0"
    },
    {
      "mesh": 1,
      "name": "duch_Material.001_0"
    }
  ],
  "scene": 0,
  "scenes": [
    {
      "name": "Sketchfab_Scene",
      "nodes": [
        0
      ]
    }
  ]
}
